<svg xmlns="http://www.w3.org/2000/svg" viewBox="0 0 392.13 348.27"><defs><style>.cls-1{fill:#c9eaff;}.cls-2{fill:#eafbff;}.cls-3{fill:#cacaca;}.cls-4{fill:#f4f4f4;}.cls-5{fill:#020098;}.cls-6{fill:#303030;}.cls-7{fill:#56eeff;}.cls-10,.cls-11,.cls-13,.cls-15,.cls-8,.cls-9{fill:none;stroke-linecap:round;stroke-miterlimit:10;}.cls-13,.cls-8{stroke:#646464;}.cls-10,.cls-8,.cls-9{stroke-width:4px;}.cls-11,.cls-9{stroke:#003bcc;}.cls-10{stroke:#020098;}.cls-12{fill:#646464;}.cls-13,.cls-15{stroke-width:2px;}.cls-14{fill:#003bcc;}.cls-15{stroke:#fff;}.cls-16{fill:#fff;}</style></defs><title>Asset 1</title><g id="Layer_2" data-name="Layer 2"><g id="Layer_2-2" data-name="Layer 2"><path class="cls-1" d="M333.84,77.09A315.05,315.05,0,0,0,372.07,86c2.27.38,4.55.73,6.8,1.22,1.24.37,2.49.69,3.76,1-1.24-.37-2.49-.68-3.76-1-5.17-1.53-10.11-3.86-15.21-5.66A80.05,80.05,0,0,0,333.84,77.09Zm53.42,6a4.58,4.58,0,0,1-.8,8.74c-8.47,1.7-17.54,1.44-26.17.34-3.36-.42-6.71-1-10.06-1.53-11.07-1.87-22.1-4.1-33.3-3.79-14.58.41-30.16,6.16-37.35,18.85l-1.85.25c-.55-.4-1.11-.77-1.67-1.1l-1-1c.71-2.66,4.32-8,5.81-10.31,3.05-4.72,7.53-8.34,12.21-11.47,21.48-14.37,50.13-19.62,73.73-9.09C373.64,76,380.35,80.34,387.26,83.06Z"/><path class="cls-1" d="M378.87,87.25c1.27.27,2.52.58,3.76,1C381.36,87.94,380.11,87.62,378.87,87.25Z"/><path class="cls-1" d="M363.66,81.59c5.1,1.8,10,4.13,15.21,5.66-2.25-.49-4.53-.84-6.8-1.22a315.05,315.05,0,0,1-38.23-8.94A80.05,80.05,0,0,1,363.66,81.59Z"/><path class="cls-2" d="M350.23,90.61c-7.46,6.94-13.66,17.94-19.27,26.44s-20.25,18.4-29.91,21.61l-1.34.57c-6.46-15.29-14.2-27.72-22-33.31l1.85-.25c7.19-12.69,22.77-18.44,37.35-18.85C328.13,86.51,339.16,88.74,350.23,90.61Z"/><path class="cls-1" d="M184.92,200.58l-1.26,0,0-2.78.09-21.54.37-90A50.14,50.14,0,0,1,197.54,68c-2.26,5.77-2.33,8.89-1.86,15.06a27.88,27.88,0,0,1,13.21-5.39,21.49,21.49,0,0,0-6.19,9.71c38.48,1.1,58.23,4.72,72.36,16.43l1,1c.56.33,1.12.7,1.67,1.1,7.78,5.59,15.52,18,22,33.31,7.91,18.75,13.9,41.8,15.68,61.82C319.2,244,304.57,292.71,292,301.32L249.86,274.2c1.27-15.82,1.41-30.82-6.68-44.47-6.22-10.49-10.71-16.58-22.88-22.48C209.5,202,196.94,200.83,184.92,200.58Zm67.66-11.79a11.95,11.95,0,1,0-11.94,11.94A11.94,11.94,0,0,0,252.58,188.79Z"/><path class="cls-3" d="M249.86,274.2,292,301.32c-4.44,6.17-12.59,11.91-30.82,22.17-9.18,5.16-21,9.66-32.51,13.26,8.78-8.5,9.88-11.53,13.86-23.56C246.31,301.88,248.84,286.84,249.86,274.2Z"/><path class="cls-4" d="M243.18,229.73c8.09,13.65,8,28.65,6.68,44.47-1,12.64-3.55,27.68-7.29,39-4,12-5.08,15.06-13.86,23.56h0c-19.35,6-38.14,9.54-43.33,9.51-6,0-27.32-4.33-47.94-12.13-4.14-6.5-6.49-13.64-9-20.34a117,117,0,0,1-7.7-34.12c-1.27-15.82.75-32.64,7.7-46.91,4.61-9.44,9.61-19.88,21.49-26.52,10-5.58,22.19-5.49,33.75-5.65l1.26,0c12,.25,24.58,1.44,35.38,6.67C232.47,213.15,237,219.24,243.18,229.73ZM184,236c10.26-3.1,21.22-10.58,20.42-15.69-.7-4.44-7.69-5.34-18.19-5.26v0H183c-10.85-.15-18.64.34-19.34,5C162.83,225.08,174,232.88,184,236Z"/><path class="cls-5" d="M240.64,176.85a11.94,11.94,0,1,1-11.95,11.94A11.94,11.94,0,0,1,240.64,176.85Z"/><path class="cls-6" d="M204.38,220.28c.8,5.11-10.16,12.59-20.42,15.69l0-.89h2.2V215C196.69,214.94,203.68,215.84,204.38,220.28Z"/><path class="cls-6" d="M186.19,215v20.06H184L184.7,215Z"/><path class="cls-6" d="M186.19,215v0H184.7L184,235.08h-.06L183.27,215h2.92Z"/><path class="cls-3" d="M184.08,86.31l-.37,90H183l-89.87-2.75,13.85,30.52,43,2.2C138,212.89,133,223.33,128.42,232.77c-7,14.27-9,31.09-7.7,46.91a117,117,0,0,0,7.7,34.12c2.51,6.7,4.86,13.84,9,20.34a157.39,157.39,0,0,1-21.11-9.65C98.08,314.23,83.83,301.73,75.59,291c-8-10.39-19.56-48.07-15.75-91,2.08-23.46,7.92-47.8,16.15-66.53,4.94-11.23,10.74-20.43,17.1-26.2a63.15,63.15,0,0,1,11.63-6.74C124.12,91.69,153.9,86.63,184.08,86.31Z"/><polygon class="cls-4" points="183.99 235.08 183.96 235.97 183.93 235.08 183.99 235.08"/><path class="cls-6" d="M183.93,235.08l0,.89c-9.95-3.09-21.13-10.89-20.34-16,.7-4.62,8.49-5.11,19.34-5v20.08Z"/><path class="cls-6" d="M183.27,215l.66,20.08h-1V215Z"/><path class="cls-7" d="M183.71,176.28l-.09,21.54,0,2.78c-11.56.16-23.75.07-33.75,5.65l-43-2.2L93.09,173.53,183,176.28Z"/><path class="cls-3" d="M97.89,68.27c5.65,6.13,8.28,24.08,6.82,32.29v0a63.15,63.15,0,0,0-11.63,6.74C62.53,90.66,32,61,13.49,28.54A152.28,152.28,0,0,1,2.08,3.76,1.33,1.33,0,0,1,4.26,2.38,266.15,266.15,0,0,0,64.6,46.57C76.34,52.85,88.87,58.47,97.89,68.27Z"/><path class="cls-4" d="M93.09,107.32c-6.36,5.77-12.16,15-17.1,26.2l-.4-.16C54.41,130.83,34.73,112.66,26.44,93S18.2,49.55,12.86,28.89l.63-.35C32,61,62.53,90.66,93.09,107.32Z"/><path class="cls-8" d="M184.35,200.57h.57c12,.25,24.58,1.44,35.38,6.67,12.17,5.9,16.66,12,22.88,22.48,8.09,13.65,8,28.65,6.68,44.47-1,12.64-3.55,27.68-7.29,39-4,12-5.08,15.06-13.86,23.56"/><path class="cls-9" d="M202.7,87.39c38.48,1.1,58.23,4.72,72.36,16.43"/><path class="cls-8" d="M93.09,107.32a63.15,63.15,0,0,1,11.63-6.74c19.4-8.89,49.18-14,79.36-14.27"/><path class="cls-8" d="M93.09,107.32c-6.36,5.77-12.16,15-17.1,26.2-8.23,18.73-14.07,43.07-16.15,66.53C56,243,67.56,280.65,75.59,291"/><path class="cls-9" d="M276.06,104.82c.56.33,1.12.7,1.67,1.1,7.78,5.59,15.52,18,22,33.31,7.91,18.75,13.9,41.8,15.68,61.82C319.2,244,304.57,292.71,292,301.32"/><path class="cls-8" d="M292,301.32c-4.44,6.17-12.59,11.91-30.82,22.17-9.18,5.16-21,9.66-32.51,13.26h0c-19.35,6-38.14,9.54-43.33,9.51"/><path class="cls-8" d="M75.59,291c8.24,10.69,22.49,23.19,40.72,33.45a157.39,157.39,0,0,0,21.11,9.65c20.62,7.8,41.92,12.13,47.94,12.13"/><polyline class="cls-8" points="184.08 86.31 183.71 176.28 183.62 197.82"/><path class="cls-8" d="M104.71,100.56c1.46-8.21-1.17-26.16-6.82-32.29-9-9.8-21.55-15.42-33.29-21.7A266.15,266.15,0,0,1,4.26,2.38,1.33,1.33,0,0,0,2.08,3.76,152.28,152.28,0,0,0,13.49,28.54C32,61,62.53,90.66,93.09,107.32"/><path class="cls-8" d="M12.86,28.89C18.2,49.55,18.15,73.36,26.44,93s28,37.82,49.15,40.35"/><path class="cls-9" d="M275.06,103.82c.71-2.66,4.32-8,5.81-10.31,3.05-4.72,7.53-8.34,12.21-11.47,21.48-14.37,50.13-19.62,73.73-9.09,6.83,3,13.54,7.39,20.45,10.11a4.58,4.58,0,0,1-.8,8.74c-8.47,1.7-17.54,1.44-26.17.34-3.36-.42-6.71-1-10.06-1.53-11.07-1.87-22.1-4.1-33.3-3.79-14.58.41-30.16,6.16-37.35,18.85"/><path class="cls-9" d="M301,138.66c9.66-3.21,24.31-13.11,29.91-21.61s11.81-19.5,19.27-26.44"/><path class="cls-10" d="M236,146.93a49.51,49.51,0,0,1,46.29,11.72"/><line class="cls-8" x1="93.09" y1="173.53" x2="182.96" y2="176.28"/><line class="cls-8" x1="106.94" y1="204.05" x2="149.91" y2="206.25"/><line class="cls-8" x1="106.94" y1="204.05" x2="93.09" y2="173.53"/><line class="cls-8" x1="292.04" y1="301.32" x2="249.86" y2="274.2"/><path class="cls-8" d="M185.86,200.57h-.94l-1.26,0c-11.56.16-23.75.07-33.75,5.65C138,212.89,133,223.33,128.42,232.77c-7,14.27-9,31.09-7.7,46.91a117,117,0,0,0,7.7,34.12c2.51,6.7,4.86,13.84,9,20.34"/><path class="cls-11" d="M184.08,86.31A50.14,50.14,0,0,1,197.54,68c-2.26,5.77-2.33,8.89-1.86,15.06"/><path class="cls-11" d="M195.68,83.07a27.88,27.88,0,0,1,13.21-5.39,21.49,21.49,0,0,0-6.19,9.71"/><path class="cls-12" d="M123.55,301.4c11.46,5.42,23.11,7.16,35.58,4.25,9.36-2.18,19-8.55,25.9-15.1,1.4-1.33-.72-3.45-2.12-2.12-6.29,6-15.23,11.94-23.69,14.13-11.82,3.07-23.25,1.41-34.15-3.75-1.74-.82-3.26,1.76-1.51,2.59Z"/><path class="cls-12" d="M245,300a60.89,60.89,0,0,1-35.8,4c-9.45-1.83-17.35-9.31-24.21-15.63-1.42-1.31-3.54.81-2.12,2.12,7.7,7.1,16.26,14.87,26.91,16.65a64.57,64.57,0,0,0,36.73-4.58c1.76-.78.24-3.37-1.51-2.59Z"/><line class="cls-13" x1="106.94" y1="204.05" x2="59.09" y2="205.15"/><line class="cls-13" x1="93.09" y1="173.53" x2="70.47" y2="147.98"/><line class="cls-13" x1="128.42" y1="172.68" x2="125.05" y2="93.55"/><path class="cls-12" d="M197.22,294.3a1.5,1.5,0,0,0,0-3,1.5,1.5,0,0,0,0,3Z"/><path class="cls-12" d="M217.61,302.34a1.5,1.5,0,0,0,0-3,1.5,1.5,0,0,0,0,3Z"/><path class="cls-12" d="M235.78,300.19a1.5,1.5,0,0,0,0-3,1.5,1.5,0,0,0,0,3Z"/><path class="cls-12" d="M79.48,153.09a1.5,1.5,0,0,0,0-3,1.5,1.5,0,0,0,0,3Z"/><path class="cls-12" d="M88.08,163.65a1.5,1.5,0,0,0,0-3,1.5,1.5,0,0,0,0,3Z"/><path class="cls-14" d="M185.3,86.71c2.79-7.14,8.14-14.59,15-18.15l-1.82-2.36A19,19,0,0,0,193.3,83a1.51,1.51,0,0,0,2.2.9,26.77,26.77,0,0,1,15.35-4.73l-.76-2.8c-4.25,3-9,5.36-9.31,11-.12,1.93,2.88,1.92,3,0,.26-4.07,4.88-6.35,7.83-8.44a1.51,1.51,0,0,0-.76-2.8A29.8,29.8,0,0,0,194,81.3l2.2.9a15.77,15.77,0,0,1,4.44-13.87A1.51,1.51,0,0,0,198.81,66c-7.63,3.93-13.34,12.08-16.41,19.94-.7,1.8,2.2,2.58,2.89.8Z"/><line class="cls-15" x1="169.7" y1="218.64" x2="197.66" y2="218.95"/><path class="cls-16" d="M241.89,182.15a6,6,0,0,1,4,3c.94,1.69,3.53.18,2.59-1.51a9,9,0,0,0-5.8-4.38c-1.88-.44-2.68,2.46-.8,2.89Z"/><line class="cls-15" x1="105.11" y1="180.71" x2="135.3" y2="180.71"/><path class="cls-12" d="M172.12,292.9a1.5,1.5,0,0,0,0-3,1.5,1.5,0,0,0,0,3Z"/><path class="cls-12" d="M153.85,301.32a1.5,1.5,0,0,0,0-3,1.5,1.5,0,0,0,0,3Z"/><path class="cls-12" d="M132.09,299.47a1.5,1.5,0,0,0,0-3,1.5,1.5,0,0,0,0,3Z"/></g></g></svg>